<?xml version="1.0" ?><!DOCTYPE svg  PUBLIC '-//W3C//DTD SVG 1.1//EN'  'http://www.w3.org/Graphics/SVG/1.1/DTD/svg11.dtd'><svg enable-background="new 0 0 512 512" height="512px" id="Layer_1" version="1.1" viewBox="0 0 512 512" width="512px" xml:space="preserve" xmlns="http://www.w3.org/2000/svg" xmlns:xlink="http://www.w3.org/1999/xlink"><g><path clip-rule="evenodd" d="M249.19,402.224V106.451h57.464v185.078   c0,6.973,5.747,5.448,7.257,3.34l56.858-88.917h69.253l-69.253,91.631l74.698,104.642h-67.74l-63.816-96.166   c-1.51-2.422-7.257-4.844-7.257,3.318v92.848H249.19z M512,486.596V25.706C512,11.491,500.503,0,486.591,0H25.701   C11.486,0,0,11.491,0,25.706v460.891C0,500.519,11.486,512,25.701,512h460.89C500.503,512,512,500.519,512,486.596L512,486.596z    M206.556,209.276v39.316c-19.057-10.583-88.006-25.404-83.476,12.101c2.125,16.621,36.292,22.383,55.046,31.149   c21.171,9.665,37.5,26.302,37.5,46.862c0,29.641-13.309,46.883-38.708,57.466c-30.252,12.712-79.842,13.004-110.083-0.605v-41.435   c26.606,16.031,94.962,26.927,97.378-4.217c2.114-31.165-62.607-21.479-89.214-59.281c-15.121-21.479-11.194-75.309,54.13-86.8   C152.717,199.904,182.656,203.833,206.556,209.276L206.556,209.276z" fill="#040404" fill-rule="evenodd"/></g></svg>