<?xml version="1.0" ?><!DOCTYPE svg  PUBLIC '-//W3C//DTD SVG 1.1//EN'  'http://www.w3.org/Graphics/SVG/1.1/DTD/svg11.dtd'><svg enable-background="new 0 0 512 512" height="512px" id="Layer_1" version="1.1" viewBox="0 0 512 512" width="512px" xml:space="preserve" xmlns="http://www.w3.org/2000/svg" xmlns:xlink="http://www.w3.org/1999/xlink"><g><path clip-rule="evenodd" d="M25.701,0h460.897C500.509,0,512,11.492,512,25.707v460.892   c0,13.91-11.491,25.401-25.401,25.401H25.701C11.492,512,0,500.509,0,486.599V25.707C0,11.492,11.492,0,25.701,0L25.701,0z    M182.358,209.883c0-10.887,3.028-20.265,8.774-28.734c5.746-8.164,14.209-14.514,25.402-19.051   c11.192-4.537,24.192-6.955,39.012-6.955c12.091,0,22.384,1.514,31.147,4.537c8.764,3.023,16.039,6.955,21.785,11.796   c5.745,5.136,9.962,10.283,12.69,15.724c2.418,5.141,3.927,10.587,3.927,15.724c0,4.537-1.798,9.073-5.126,12.706   c-3.327,3.627-7.275,5.746-12.4,5.746c-4.548,0-7.875-1.209-10.293-3.328c-2.419-2.418-4.837-6.051-7.565-11.192   c-3.616-7.56-7.854-13.305-12.69-17.237c-5.146-4.232-13.011-6.351-24.203-6.351c-9.972,0-18.446,2.418-24.492,6.655   c-6.345,4.537-9.373,9.978-9.373,16.328c0,3.932,0.91,7.26,3.028,9.983c2.108,3.022,5.136,5.441,8.764,7.56   c3.938,1.813,7.564,3.627,11.492,4.537c3.627,1.209,9.983,3.023,18.747,5.141c10.892,2.723,21.185,5.441,29.948,8.469   c8.764,3.322,16.328,6.955,22.674,11.492c6.365,4.232,11.202,9.978,14.819,16.632c3.327,6.955,5.146,15.119,5.146,25.103   c0,11.791-3.019,22.373-9.074,31.757c-6.056,9.373-15.129,16.628-26.621,22.074c-11.78,5.136-25.69,7.864-41.729,7.864   c-19.356,0-35.074-3.627-47.775-10.893c-8.774-5.136-16.029-12.091-21.475-20.864c-5.446-8.774-8.164-17.238-8.164-25.402   c0-4.836,1.509-9.073,4.836-12.4c3.328-3.328,7.564-5.137,12.701-5.137c4.237,0,7.564,1.509,10.582,3.928   c2.729,2.718,5.446,6.655,7.265,12.101c2.418,6.046,5.136,11.182,8.164,15.419c3.018,4.237,6.955,7.564,12.091,10.283   c5.446,2.718,12.101,4.236,20.565,4.236c11.791,0,21.485-2.728,28.739-8.164c7.255-5.446,10.893-12.4,10.893-20.564   c0-6.356-1.818-11.802-5.746-15.729c-3.947-3.938-9.073-7.265-15.439-9.373c-6.345-2.118-14.819-4.237-25.102-6.655   c-13.91-3.327-25.701-7.265-35.074-11.492c-9.684-4.537-16.938-10.587-22.684-18.146   C185.076,230.449,182.358,221.07,182.358,209.883L182.358,209.883z M424.903,330.252c0-15.729-3.928-30.848-10.893-43.859   c1.818-9.982,2.729-19.955,2.729-30.238c0-88.916-71.988-160.894-160.595-160.894c-10.882,0-21.464,1.209-31.747,3.028   c-13.011-6.655-27.83-10.283-43.249-10.283c-52.012,0-94.052,42.035-94.052,93.752c0,16.028,3.927,30.843,10.882,44.153   c-1.809,9.678-2.718,19.961-2.718,30.243c0,88.606,71.978,160.584,160.883,160.584c10.893,0,21.475-0.91,31.768-3.028   c13.001,6.655,27.51,10.593,43.238,10.593C382.863,424.304,424.903,382.264,424.903,330.252L424.903,330.252z" fill="#010101" fill-rule="evenodd"/></g></svg>